<?xml version="1.0" encoding="utf-8"?>
<!-- Generator: Adobe Illustrator 16.0.0, SVG Export Plug-In . SVG Version: 6.00 Build 0)  -->
<!DOCTYPE svg PUBLIC "-//W3C//DTD SVG 1.1//EN" "http://www.w3.org/Graphics/SVG/1.1/DTD/svg11.dtd">
<svg version="1.1" id="Layer_1" xmlns="http://www.w3.org/2000/svg" xmlns:xlink="http://www.w3.org/1999/xlink" x="0px" y="0px"
	 width="683.265px" height="799.998px" viewBox="0 0 683.265 799.998" enable-background="new 0 0 683.265 799.998"
	 xml:space="preserve">
<g>
	<g>
		<g>
			<path fill="#15AFB6" d="M609.835,372.142l-14.029-14.027c-3.381-3.381-7.971-5.282-12.752-5.282
				c-4.783,0-9.373,1.901-12.754,5.282l-89.848,89.849l19.225-217.882c11.568,7.188,24.76,12.181,39.152,12.181
				c48.877,0,84.072-57.385,87.928-63.928c3.326-5.646,3.326-12.654,0-18.301c-3.855-6.544-39.049-63.927-87.928-63.927
				c-2.031,0-4.027,0.133-6.01,0.324c0.189-1.983,0.324-3.979,0.324-6.01c0-48.878-57.385-84.072-63.928-87.927
				c-5.646-3.323-12.654-3.326-18.301,0c-6.543,3.854-63.928,39.049-63.928,87.927c0,11.943,3.441,23.063,8.717,33.115H270.247
				V57.609c0-9.961-8.074-18.036-18.035-18.036s-18.037,8.075-18.037,18.036v65.925H18.035c-5.059,0-9.886,2.125-13.301,5.856
				c-3.416,3.73-5.109,8.727-4.664,13.766L50.571,715.5c0.822,9.31,8.619,16.45,17.965,16.45H260.47
				c0.082,0,0.162-0.011,0.244-0.013c48.146,45.366,109.997,68.06,171.85,68.06c64.199,0,128.396-24.438,177.271-73.31
				c47.352-47.353,73.43-110.31,73.43-177.272C683.263,482.451,657.185,419.493,609.835,372.142z M538.304,441.116l6.105,6.102
				c54.83,59.94,52.791,151.817-4.721,209.325c-57.51,57.509-149.385,59.551-209.325,4.719l-6.102-6.102l69.913-69.914v72.842
				c0,9.961,8.076,18.036,18.037,18.036s18.035-8.075,18.035-18.036v-85.479l27.395,27.396c3.521,3.521,8.137,5.282,12.752,5.282
				s9.232-1.762,12.754-5.282c7.043-7.044,7.045-18.464,0-25.507l-27.396-27.396h85.479c9.961,0,18.037-8.074,18.037-18.035
				s-8.076-18.036-18.037-18.036h-72.842L538.304,441.116z M504.626,150.227c10.207-9.809,22.404-18.05,34.201-18.05
				c19.328,0,39.742,22.125,50.688,37.004c-10.953,14.894-31.363,37.008-50.688,37.008c-19.33,0-39.748-22.125-50.689-37.005
				c3.398-4.619,7.705-9.934,12.609-15.067C502.044,152.867,503.339,151.56,504.626,150.227z M460.087,39.708
				c14.885,10.895,36.979,31.24,36.979,50.708c0,11.794-8.238,23.986-18.039,34.191c-1.34,1.297-2.652,2.597-3.91,3.9
				c-5.131,4.898-10.439,9.203-15.053,12.598c-14.895-10.953-37.008-31.362-37.008-50.689
				C423.056,71.075,445.208,50.646,460.087,39.708z M270.241,159.604h155.118c12.039,10.544,22.9,17.175,25.545,18.732
				c1.375,2.334,6.73,11.103,15.232,21.42l-25.34,287.188c-0.021,0.231-0.016,0.461-0.025,0.692l-44.451,44.45l21.193-258.123
				c0.414-5.022-1.295-9.99-4.711-13.696c-3.414-3.706-8.225-5.817-13.264-5.817H270.241V159.604z M252.206,500.28
				c9.961,0,18.035-8.075,18.035-18.036v-191.72h109.721L356.89,571.519l-48.604,48.604H154.513L127.45,290.521h106.721v191.719
				C234.169,492.205,242.243,500.28,252.206,500.28z M241.259,687.152c-2.49,2.489-4.082,5.528-4.811,8.728H85.05L37.732,159.604
				h196.437v94.848H107.87c-5.039,0-9.852,2.108-13.265,5.817c-3.416,3.706-5.124,8.673-4.711,13.696l30.024,365.675
				c0.77,9.357,8.588,16.562,17.975,16.562h134.314L241.259,687.152z M584.328,701.179c-41.848,41.848-96.799,62.768-151.768,62.765
				c-54.957-0.005-109.93-20.928-151.768-62.764l-1.275-1.275l19.238-19.237l6.375,6.378c0.18,0.18,0.363,0.354,0.549,0.526
				c34.703,31.897,79.61,49.338,126.823,49.338c1.258,0,2.518-0.013,3.777-0.037c48.736-0.96,94.521-20.429,128.914-54.82
				c34.391-34.394,53.859-80.177,54.82-128.912c0.955-48.591-16.553-94.976-49.301-130.602c-0.172-0.188-0.348-0.37-0.527-0.549
				l-6.377-6.378l19.236-19.237l1.275,1.276c40.539,40.537,62.865,94.438,62.865,151.767
				C647.191,606.744,624.865,660.642,584.328,701.179z"/>
		</g>
	</g>
</g>
<g>
	<g>
		<g>
			<path fill="#15AFB6" d="M826.128,623.398c-0.234-1.137-0.576-2.271-1.027-3.373c-0.451-1.083-1.01-2.128-1.658-3.103
				c-0.65-0.992-1.406-1.912-2.236-2.742s-1.77-1.588-2.742-2.255c-0.992-0.648-2.037-1.189-3.121-1.641
				c-1.082-0.451-2.219-0.812-3.373-1.028c-2.326-0.469-4.725-0.469-7.051,0c-1.156,0.216-2.291,0.577-3.375,1.028
				c-1.082,0.452-2.127,0.992-3.119,1.641c-0.975,0.667-1.895,1.425-2.742,2.255c-0.83,0.83-1.588,1.75-2.236,2.742
				c-0.648,0.975-1.207,2.021-1.658,3.103c-0.451,1.1-0.795,2.235-1.029,3.373c-0.234,1.172-0.342,2.362-0.342,3.534
				c0,4.743,1.912,9.396,5.268,12.751c0.848,0.83,1.768,1.588,2.742,2.236c0.992,0.649,2.037,1.208,3.121,1.659
				c1.082,0.451,2.219,0.794,3.373,1.028c1.172,0.233,2.346,0.359,3.533,0.359c1.172,0,2.346-0.126,3.518-0.359
				c1.154-0.234,2.291-0.577,3.373-1.028c1.084-0.451,2.129-1.01,3.121-1.659c0.973-0.65,1.912-1.406,2.742-2.236
				c3.354-3.354,5.285-8.008,5.285-12.751C826.49,625.763,826.363,624.572,826.128,623.398z"/>
		</g>
	</g>
</g>
</svg>
