<?xml version="1.0" encoding="utf-8"?>
<!-- Generator: Adobe Illustrator 16.0.0, SVG Export Plug-In . SVG Version: 6.00 Build 0)  -->
<!DOCTYPE svg PUBLIC "-//W3C//DTD SVG 1.1//EN" "http://www.w3.org/Graphics/SVG/1.1/DTD/svg11.dtd">
<svg version="1.1" id="Layer_1" xmlns="http://www.w3.org/2000/svg" xmlns:xlink="http://www.w3.org/1999/xlink" x="0px" y="0px"
	 width="683.265px" height="799.998px" viewBox="298.368 0.002 683.265 799.998"
	 enable-background="new 298.368 0.002 683.265 799.998" xml:space="preserve">
<g>
	<g>
		<g>
			<path fill="#F8324A" d="M908.202,372.145l-14.028-14.028c-3.381-3.381-7.971-5.282-12.753-5.282
				c-4.783,0-9.372,1.901-12.753,5.282l-89.849,89.849l19.225-217.882c11.569,7.188,24.76,12.18,39.153,12.18
				c48.877,0,84.073-57.384,87.927-63.927c3.326-5.647,3.326-12.655,0-18.301c-3.854-6.544-39.049-63.927-87.927-63.927
				c-2.031,0-4.028,0.133-6.01,0.324c0.189-1.983,0.324-3.978,0.324-6.009c0-48.878-57.385-84.073-63.927-87.927
				c-5.646-3.323-12.654-3.326-18.302,0c-6.543,3.854-63.926,39.049-63.926,87.927c0,11.943,3.44,23.063,8.715,33.115H568.615
				V57.612c0-9.961-8.075-18.036-18.036-18.036s-18.036,8.075-18.036,18.036v65.925h-216.14c-5.059,0-9.886,2.125-13.301,5.856
				c-3.416,3.731-5.109,8.727-4.664,13.766l50.501,572.344c0.822,9.31,8.619,16.45,17.965,16.45h191.933
				c0.083,0,0.162-0.011,0.245-0.013C607.229,777.307,669.077,800,730.931,800c64.199,0,128.397-24.438,177.272-73.31
				c47.352-47.352,73.43-110.309,73.43-177.272C981.63,482.454,955.552,419.496,908.202,372.145z M836.672,441.119l6.104,6.102
				c54.831,59.94,52.791,151.817-4.719,209.325c-57.51,57.509-149.386,59.551-209.326,4.719l-6.1-6.102l69.912-69.914v72.842
				c0,9.961,8.075,18.036,18.036,18.036s18.036-8.075,18.036-18.036v-85.479l27.394,27.396c3.521,3.521,8.137,5.282,12.753,5.282
				c4.615,0,9.232-1.762,12.753-5.282c7.044-7.044,7.045-18.464,0-25.507l-27.396-27.395h85.479c9.961,0,18.036-8.075,18.036-18.036
				s-8.075-18.036-18.036-18.036h-72.842L836.672,441.119z M802.994,150.229c10.206-9.808,22.403-18.05,34.2-18.05
				c19.329,0,39.743,22.125,50.688,37.004c-10.953,14.894-31.362,37.008-50.688,37.008c-19.33,0-39.747-22.125-50.689-37.005
				c3.398-4.619,7.705-9.933,12.609-15.067C800.411,152.87,801.707,151.562,802.994,150.229z M758.455,39.711
				c14.885,10.894,36.979,31.24,36.979,50.708c0,11.794-8.239,23.986-18.039,34.191c-1.341,1.297-2.653,2.597-3.911,3.901
				c-5.131,4.898-10.44,9.203-15.053,12.597c-14.895-10.953-37.008-31.362-37.008-50.689
				C721.423,71.078,743.575,50.648,758.455,39.711z M568.608,159.607h155.119c12.039,10.544,22.899,17.175,25.545,18.733
				c1.375,2.334,6.729,11.102,15.232,21.42l-25.34,287.188c-0.021,0.232-0.015,0.461-0.025,0.693l-44.451,44.45l21.193-258.123
				c0.413-5.023-1.295-9.991-4.711-13.697c-3.414-3.706-8.225-5.817-13.264-5.817H568.608V159.607z M550.573,500.283
				c9.961,0,18.035-8.075,18.035-18.036v-191.72h109.721l-23.072,280.995l-48.604,48.604H452.881l-27.063-329.603h106.721v191.719
				C532.537,492.208,540.61,500.283,550.573,500.283z M539.626,687.155c-2.489,2.49-4.081,5.529-4.811,8.728H383.418L336.1,159.607
				h196.436v94.848H406.237c-5.039,0-9.851,2.108-13.264,5.817c-3.416,3.706-5.124,8.673-4.711,13.697l30.025,365.675
				c0.769,9.357,8.588,16.561,17.975,16.561h134.314L539.626,687.155z M882.694,701.182
				c-41.847,41.847-96.797,62.767-151.767,62.764c-54.957-0.005-109.929-20.927-151.768-62.763l-1.274-1.276l19.237-19.237
				l6.376,6.378c0.179,0.18,0.362,0.354,0.549,0.526c34.703,31.898,79.609,49.338,126.821,49.338c1.258,0,2.518-0.013,3.778-0.037
				c48.737-0.96,94.521-20.429,128.914-54.82c34.391-34.394,53.86-80.177,54.82-128.912c0.956-48.591-16.552-94.976-49.3-130.602
				c-0.172-0.188-0.348-0.37-0.527-0.549l-6.378-6.378l19.237-19.237l1.275,1.276c40.539,40.537,62.865,94.438,62.865,151.767
				C945.559,606.747,923.233,660.645,882.694,701.182z"/>
		</g>
	</g>
</g>
<g>
	<g>
		<g>
			<path fill="#F8324A" d="M826.129,623.398c-0.234-1.136-0.577-2.271-1.028-3.373c-0.452-1.083-1.01-2.128-1.659-3.102
				c-0.65-0.992-1.406-1.912-2.236-2.742s-1.768-1.588-2.742-2.255c-0.992-0.649-2.037-1.19-3.12-1.641
				c-1.083-0.451-2.219-0.811-3.374-1.028c-2.326-0.469-4.725-0.469-7.051,0c-1.155,0.216-2.291,0.577-3.374,1.028
				c-1.083,0.452-2.128,0.992-3.12,1.641c-0.974,0.667-1.894,1.425-2.742,2.255c-0.83,0.83-1.588,1.75-2.236,2.742
				c-0.649,0.974-1.207,2.021-1.659,3.102c-0.451,1.1-0.794,2.236-1.028,3.373c-0.234,1.172-0.342,2.363-0.342,3.535
				c0,4.743,1.912,9.396,5.268,12.751c0.847,0.83,1.767,1.588,2.742,2.236c0.992,0.649,2.037,1.208,3.12,1.659
				s2.219,0.794,3.373,1.028c1.172,0.234,2.346,0.36,3.534,0.36c1.172,0,2.346-0.126,3.518-0.36
				c1.154-0.234,2.291-0.577,3.373-1.028c1.083-0.451,2.129-1.01,3.121-1.659c0.973-0.65,1.912-1.406,2.742-2.236
				c3.354-3.354,5.284-8.008,5.284-12.751C826.489,625.763,826.363,624.572,826.129,623.398z"/>
		</g>
	</g>
</g>
</svg>
