<?xml version="1.0" encoding="utf-8"?>
<!-- Generator: Adobe Illustrator 16.0.0, SVG Export Plug-In . SVG Version: 6.00 Build 0)  -->
<!DOCTYPE svg PUBLIC "-//W3C//DTD SVG 1.1//EN" "http://www.w3.org/Graphics/SVG/1.1/DTD/svg11.dtd">
<svg version="1.1" id="Layer_1" xmlns="http://www.w3.org/2000/svg" xmlns:xlink="http://www.w3.org/1999/xlink" x="0px" y="0px"
	 width="800px" height="744.692px" viewBox="240 27.653 800 744.692" enable-background="new 240 27.653 800 744.692"
	 xml:space="preserve">
<g>
	<g>
		<g>
			<path fill="#F8324A" d="M1002.231,452.338c-20.091-26.986-47.119-44.816-79.417-52.694v-26.981h4.017
				c10.39,0,18.812-8.422,18.812-18.811s-8.422-18.811-18.812-18.811h-22.828H711.195l31.477-286.524
				c0.583-5.314-1.122-10.626-4.689-14.608c-3.568-3.982-8.662-6.256-14.008-6.256H258.81c-5.346,0-10.439,2.275-14.008,6.256
				c-3.569,3.983-5.272,9.292-4.689,14.608l64.563,587.697c1.049,9.534,9.105,16.757,18.697,16.757h0.543l6.13,87.936
				c0.686,9.856,8.884,17.503,18.766,17.503h212.853c19.755,9.198,42.148,13.937,66.677,13.937h254.401
				c50.248,0,91.567-19.825,119.489-57.327C1026.939,681.834,1040,636.417,1040,583.68
				C1040,530.943,1026.939,485.521,1002.231,452.338z M885.193,372.659v22.366l0,0c-0.815-0.01-1.633-0.016-2.451-0.016h-254.4
				c-0.818,0-1.636,0.006-2.451,0.016v-22.366h64.314H885.193z M340.231,615.346L279.8,65.273h423.185l-29.636,269.768h-28.942
				l20.153-183.433c0.583-5.314-1.122-10.626-4.689-14.608c-3.568-3.983-8.662-6.256-14.008-6.256H336.925
				c-5.345,0-10.439,2.275-14.008,6.256c-3.568,3.983-5.271,9.292-4.689,14.608l39.185,356.684
				c1.048,9.538,9.104,16.757,18.697,16.757h101.008c-0.409,1.879-0.797,3.774-1.166,5.686c-0.186,0.967-0.368,1.938-0.543,2.912
				c-0.312,1.724-0.609,3.457-0.887,5.202c-0.193,1.217-0.371,2.443-0.551,3.672c-0.23,1.587-0.455,3.175-0.656,4.781
				c-0.182,1.438-0.34,2.894-0.499,4.347c-0.159,1.459-0.323,2.917-0.461,4.393c-0.156,1.667-0.278,3.353-0.404,5.04
				c-0.099,1.317-0.211,2.627-0.292,3.953c-0.122,1.983-0.203,3.992-0.285,6c-0.043,1.073-0.107,2.138-0.141,3.219
				c-0.094,3.111-0.146,6.249-0.146,9.422c0,2.999,0.053,5.974,0.139,8.938c0.031,1.15,0.09,2.283,0.137,3.424
				c0.071,1.753,0.146,3.503,0.248,5.24c0.083,1.439,0.183,2.869,0.286,4.294c0.1,1.359,0.209,2.713,0.326,4.063
				c0.141,1.625,0.289,3.247,0.458,4.854c0.029,0.284,0.052,0.573,0.081,0.856H340.231V615.346z M584.252,372.659h4.017v26.981
				c-24.359,5.942-45.712,17.557-63.36,34.479c-9.285,8.887-17.504,19.212-24.557,30.886c-0.13,0.214-0.26,0.427-0.388,0.644
				c-1.2,2.005-2.365,4.05-3.497,6.135c-0.22,0.406-0.436,0.815-0.652,1.225c-1.049,1.967-2.074,3.959-3.06,5.995
				c-0.276,0.569-0.538,1.151-0.81,1.724c-0.695,1.479-1.377,2.977-2.042,4.49c-0.325,0.738-0.661,1.466-0.977,2.21h-95.959
				l-14.503-132.019h76.13c10.389,0,18.811-8.422,18.811-18.812c0-10.389-8.422-18.808-18.811-18.808H374.33l-6.2-56.431h124.083
				c10.389,0,18.811-8.422,18.811-18.811s-8.422-18.811-18.811-18.811H363.997l-6.083-55.374h266.955l-18.31,166.677h-22.308
				c-10.39,0-18.812,8.422-18.812,18.811C565.44,364.239,573.862,372.659,584.252,372.659z M366.356,720.786l-4.608-66.096h118.425
				c0.009,0.031,0.019,0.064,0.027,0.096c0.866,3.115,1.781,6.192,2.77,9.211c0.031,0.099,0.061,0.201,0.092,0.298
				c0.953,2.905,1.958,5.77,3.023,8.58c0.787,2.096,1.639,4.13,2.484,6.166c0.221,0.524,0.424,1.063,0.646,1.586
				c1.036,2.428,2.129,4.8,3.249,7.144c0.029,0.061,0.056,0.122,0.086,0.185c5.815,12.126,12.712,23.125,20.708,32.829H366.356
				V720.786z M882.742,734.722h-254.4c-20.618,0-37.699-3.995-51.854-10.719c-0.63-0.423-1.281-0.826-1.972-1.178
				c-21.953-11.158-36.531-28.797-46.211-47.507c-15.888-31.203-19.117-66.961-19.542-86.72c-0.03-1.636-0.055-3.275-0.055-4.927
				c0-2.086,0.04-4.141,0.086-6.192c0.517-19.313,3.728-52.55,17.967-82.325c0.188-0.384,0.37-0.767,0.563-1.151
				c0.104-0.212,0.211-0.425,0.315-0.638c0.777-1.537,1.601-3.07,2.452-4.602c0.67-1.193,1.341-2.384,2.04-3.543
				c0.083-0.14,0.164-0.278,0.247-0.418c15.307-25.17,37.609-42.058,65.658-48.798c0.104-0.025,0.216-0.046,0.321-0.07
				c1.525-0.361,3.074-0.685,4.633-0.986c1.114-0.212,2.252-0.398,3.393-0.583c0.6-0.098,1.197-0.199,1.802-0.289
				c1.553-0.228,3.125-0.438,4.727-0.612c0.001,0,0.001,0,0.003,0c0.003,0,0.01-0.001,0.013-0.001
				c0.165-0.02,0.329-0.041,0.495-0.059c0.086-0.009,0.174-0.019,0.26-0.026c1.417-0.146,2.845-0.269,4.29-0.372
				c0.047-0.003,0.094-0.008,0.143-0.011l1.341-0.089c1.042-0.064,2.092-0.111,3.144-0.151l1.263-0.049
				c1.477-0.044,2.964-0.073,4.48-0.073h254.402c1.642,0,3.259,0.029,4.855,0.08c4.752,0.154,9.405,0.535,13.887,1.142
				c0.139,0.019,0.277,0.013,0.415,0.028c92.861,12.545,100.476,116.521,100.476,149.797
				C1002.378,619.109,993.75,734.722,882.742,734.722z"/>
		</g>
	</g>
</g>
<g>
	<g>
		<g>
			<path fill="#F8324A" d="M755.544,471.419c-102.253,0-182.354,49.975-182.354,113.774c0,63.801,80.101,113.775,182.354,113.775
				s182.353-49.975,182.353-113.775C937.896,521.394,857.797,471.419,755.544,471.419z M861.739,636.076
				c-28.065,16.297-65.78,25.272-106.198,25.272c-40.419,0-78.133-8.976-106.199-25.272c-10.433-6.059-25.982-17.042-33.753-32.073
				h151.025c10.389,0,18.811-8.422,18.811-18.811c0-10.39-8.422-18.812-18.811-18.812H615.589
				c7.771-15.031,23.32-26.014,33.753-32.071c28.066-16.297,65.78-25.272,106.199-25.272c40.418,0,78.133,8.976,106.198,25.272
				c14.392,8.357,38.534,26.081,38.534,50.883C900.273,609.995,876.131,627.719,861.739,636.076z"/>
		</g>
	</g>
</g>
<g>
	<g>
		<path fill="#F8324A" d="M567.089,238.867c-0.245-1.203-0.602-2.389-1.071-3.517c-0.471-1.128-1.054-2.22-1.731-3.255
			c-0.695-1.016-1.468-1.975-2.333-2.859c-0.885-0.866-1.844-1.636-2.859-2.333c-1.034-0.677-2.125-1.261-3.255-1.731
			s-2.313-0.828-3.517-1.072c-2.427-0.489-4.929-0.489-7.355,0c-1.204,0.244-2.389,0.602-3.517,1.072s-2.221,1.053-3.255,1.731
			c-1.016,0.695-1.994,1.467-2.859,2.333c-0.865,0.884-1.654,1.844-2.333,2.859c-0.677,1.035-1.261,2.125-1.731,3.255
			c-0.47,1.128-0.828,2.314-1.071,3.517c-0.244,1.224-0.358,2.445-0.358,3.688c0,1.222,0.113,2.445,0.358,3.669
			c0.245,1.203,0.602,2.389,1.071,3.517c0.471,1.128,1.054,2.22,1.731,3.254c0.677,1.016,1.468,1.994,2.333,2.859
			c0.865,0.866,1.844,1.655,2.859,2.333c1.034,0.677,2.125,1.261,3.255,1.731c1.128,0.47,2.313,0.828,3.517,1.072
			c1.223,0.244,2.445,0.376,3.669,0.376c1.242,0,2.464-0.131,3.688-0.376c1.205-0.244,2.39-0.602,3.518-1.072
			c1.128-0.471,2.22-1.053,3.255-1.731c1.016-0.677,1.975-1.467,2.859-2.333c0.865-0.865,1.636-1.844,2.332-2.859
			c0.677-1.034,1.262-2.125,1.731-3.254c0.471-1.128,0.828-2.314,1.072-3.517c0.243-1.224,0.357-2.445,0.357-3.669
			C567.447,241.313,567.334,240.091,567.089,238.867z"/>
	</g>
</g>
<g>
	<g>
		<path fill="#F8324A" d="M841.495,581.518c-0.245-1.205-0.602-2.39-1.071-3.518c-0.471-1.128-1.054-2.239-1.731-3.255
			c-0.695-1.034-1.486-1.993-2.352-2.859c-0.866-0.865-1.825-1.654-2.859-2.333c-1.016-0.676-2.106-1.261-3.236-1.73
			c-1.146-0.471-2.333-0.828-3.517-1.072c-2.427-0.489-4.929-0.489-7.355,0c-1.204,0.244-2.389,0.602-3.517,1.072
			c-1.147,0.47-2.239,1.053-3.255,1.73c-1.034,0.677-1.994,1.468-2.859,2.333c-0.865,0.866-1.654,1.825-2.333,2.859
			c-0.677,1.016-1.261,2.125-1.731,3.255c-0.47,1.128-0.828,2.314-1.071,3.518c-0.244,1.203-0.377,2.445-0.377,3.668
			c0,1.242,0.132,2.465,0.377,3.688c0.245,1.205,0.602,2.371,1.071,3.518c0.471,1.128,1.054,2.221,1.731,3.236
			c0.677,1.034,1.468,1.993,2.333,2.859c0.865,0.865,1.825,1.654,2.859,2.352c1.016,0.676,2.106,1.261,3.255,1.73
			c1.128,0.471,2.313,0.828,3.517,1.072c1.203,0.245,2.445,0.357,3.669,0.357c1.242,0,2.464-0.112,3.688-0.357
			c1.185-0.244,2.37-0.602,3.518-1.072c1.128-0.47,2.22-1.053,3.235-1.73c1.035-0.695,1.994-1.486,2.859-2.352
			c0.866-0.866,1.655-1.825,2.352-2.859c0.677-1.016,1.262-2.106,1.731-3.236c0.471-1.146,0.828-2.314,1.072-3.518
			c0.243-1.223,0.357-2.445,0.357-3.688C841.854,583.963,841.74,582.721,841.495,581.518z"/>
	</g>
</g>
<g>
	<g>
		<path fill="#F8324A" d="M529.469,332.919c-0.244-1.203-0.602-2.37-1.072-3.518c-0.47-1.128-1.053-2.22-1.73-3.235
			c-0.695-1.035-1.468-1.994-2.333-2.859c-0.885-0.885-1.844-1.655-2.859-2.352c-1.034-0.677-2.125-1.262-3.255-1.731
			c-1.13-0.471-2.314-0.828-3.518-1.072c-2.426-0.489-4.928-0.489-7.354,0c-1.203,0.244-2.389,0.602-3.517,1.072
			c-1.129,0.47-2.239,1.053-3.255,1.731c-1.034,0.695-1.994,1.467-2.859,2.352c-0.866,0.865-1.655,1.824-2.333,2.859
			c-0.677,1.016-1.261,2.105-1.731,3.235c-0.47,1.147-0.828,2.314-1.071,3.518c-0.244,1.224-0.358,2.445-0.358,3.688
			c0,1.222,0.112,2.445,0.358,3.669c0.243,1.203,0.602,2.389,1.071,3.517c0.471,1.128,1.054,2.221,1.731,3.255
			c0.677,1.016,1.467,1.994,2.333,2.859c0.865,0.865,1.825,1.654,2.859,2.333c1.016,0.677,2.125,1.261,3.255,1.731
			c1.128,0.47,2.313,0.828,3.517,1.071c1.224,0.244,2.445,0.377,3.669,0.377c1.242,0,2.464-0.132,3.688-0.377
			c1.203-0.243,2.389-0.602,3.518-1.071c1.128-0.471,2.22-1.054,3.254-1.731c1.016-0.677,1.976-1.468,2.859-2.333
			c0.866-0.865,1.637-1.844,2.333-2.859c0.677-1.034,1.261-2.125,1.731-3.255c0.471-1.128,0.828-2.313,1.072-3.517
			c0.243-1.224,0.376-2.445,0.376-3.669C529.846,335.364,529.714,334.143,529.469,332.919z"/>
	</g>
</g>
</svg>
