<?xml version="1.0" encoding="utf-8"?>
<!-- Generator: Adobe Illustrator 16.0.0, SVG Export Plug-In . SVG Version: 6.00 Build 0)  -->
<!DOCTYPE svg PUBLIC "-//W3C//DTD SVG 1.1//EN" "http://www.w3.org/Graphics/SVG/1.1/DTD/svg11.dtd">
<svg version="1.1" id="Layer_1" xmlns="http://www.w3.org/2000/svg" xmlns:xlink="http://www.w3.org/1999/xlink" x="0px" y="0px"
	 width="800px" height="744.692px" viewBox="0 0 800 744.692" enable-background="new 0 0 800 744.692" xml:space="preserve">
<g>
	<g>
		<g>
			<path fill="#15AFB6" d="M762.23,424.685c-20.091-26.986-47.118-44.816-79.416-52.695v-26.98h4.017
				c10.39,0,18.812-8.422,18.812-18.812c0-10.389-8.422-18.811-18.812-18.811h-22.828H471.195l31.477-286.523
				c0.583-5.314-1.122-10.626-4.688-14.608C494.415,2.273,489.321,0,483.975,0H18.81C13.464,0,8.371,2.275,4.802,6.255
				c-3.569,3.983-5.272,9.292-4.689,14.608L64.676,608.56c1.049,9.535,9.105,16.758,18.697,16.758h0.543l6.13,87.936
				c0.686,9.855,8.884,17.504,18.766,17.504h212.854c19.755,9.197,42.148,13.936,66.677,13.936h254.401
				c50.248,0,91.567-19.824,119.489-57.326C786.939,654.181,800,608.763,800,556.027S786.939,457.869,762.23,424.685z
				 M645.193,345.005v22.367l0,0c-0.815-0.012-1.634-0.018-2.451-0.018h-254.4c-0.817,0-1.636,0.006-2.451,0.018v-22.367h64.314
				H645.193z M100.23,587.693L39.8,37.62h423.186l-29.637,269.768h-28.941l20.152-183.433c0.583-5.314-1.122-10.626-4.688-14.608
				c-3.568-3.982-8.662-6.256-14.008-6.256H96.925c-5.345,0-10.439,2.275-14.008,6.256c-3.568,3.983-5.271,9.292-4.689,14.608
				l39.186,356.684c1.048,9.539,9.104,16.758,18.696,16.758h101.009c-0.409,1.879-0.797,3.773-1.166,5.686
				c-0.187,0.967-0.368,1.938-0.543,2.912c-0.313,1.725-0.609,3.457-0.888,5.201c-0.192,1.219-0.37,2.443-0.551,3.674
				c-0.229,1.586-0.455,3.174-0.655,4.779c-0.183,1.439-0.341,2.895-0.499,4.348c-0.159,1.459-0.323,2.918-0.461,4.393
				c-0.156,1.668-0.278,3.354-0.404,5.041c-0.1,1.316-0.211,2.627-0.292,3.953c-0.122,1.982-0.203,3.992-0.285,6
				c-0.043,1.072-0.107,2.137-0.141,3.219c-0.095,3.111-0.146,6.248-0.146,9.422c0,2.998,0.053,5.975,0.14,8.938
				c0.03,1.15,0.09,2.283,0.137,3.424c0.07,1.754,0.146,3.504,0.248,5.24c0.083,1.439,0.183,2.869,0.286,4.295
				c0.1,1.357,0.209,2.713,0.325,4.063c0.142,1.625,0.289,3.246,0.458,4.854c0.029,0.285,0.053,0.572,0.081,0.855H100.23V587.693z
				 M344.252,345.005h4.018v26.98c-24.359,5.943-45.713,17.559-63.36,34.48c-9.285,8.887-17.504,19.211-24.558,30.885
				c-0.13,0.215-0.26,0.428-0.388,0.645c-1.2,2.006-2.365,4.051-3.497,6.135c-0.22,0.406-0.436,0.814-0.651,1.225
				c-1.05,1.967-2.074,3.959-3.061,5.996c-0.276,0.568-0.538,1.15-0.81,1.723c-0.695,1.48-1.377,2.979-2.042,4.49
				c-0.325,0.738-0.661,1.467-0.978,2.211h-95.959l-14.503-132.02h76.13c10.39,0,18.812-8.422,18.812-18.813
				c0-10.389-8.422-18.808-18.812-18.808H134.33l-6.2-56.431h124.083c10.389,0,18.812-8.422,18.812-18.812
				c0-10.389-8.423-18.811-18.812-18.811H123.997l-6.083-55.374h266.955l-18.311,166.677h-22.308
				c-10.39,0-18.812,8.422-18.812,18.811C325.44,336.585,333.862,345.005,344.252,345.005z M126.355,693.132l-4.607-66.096h118.425
				c0.009,0.031,0.02,0.064,0.027,0.096c0.866,3.115,1.78,6.193,2.77,9.211c0.031,0.1,0.062,0.201,0.093,0.299
				c0.952,2.904,1.957,5.77,3.022,8.58c0.787,2.096,1.639,4.129,2.484,6.166c0.221,0.523,0.424,1.063,0.646,1.586
				c1.036,2.428,2.129,4.799,3.249,7.145c0.029,0.061,0.056,0.121,0.086,0.184c5.815,12.127,12.712,23.125,20.708,32.83H126.355
				L126.355,693.132z M642.742,707.068h-254.4c-20.618,0-37.699-3.994-51.854-10.719c-0.63-0.422-1.281-0.826-1.973-1.178
				c-21.952-11.158-36.53-28.797-46.211-47.506c-15.888-31.203-19.116-66.961-19.542-86.721c-0.029-1.637-0.055-3.275-0.055-4.928
				c0-2.086,0.04-4.141,0.086-6.191c0.517-19.313,3.729-52.551,17.967-82.324c0.188-0.385,0.37-0.768,0.563-1.152
				c0.104-0.211,0.211-0.424,0.314-0.637c0.777-1.537,1.602-3.07,2.452-4.604c0.67-1.191,1.341-2.383,2.04-3.543
				c0.083-0.139,0.164-0.277,0.247-0.418c15.308-25.17,37.609-42.057,65.658-48.797c0.104-0.025,0.216-0.047,0.321-0.07
				c1.524-0.361,3.073-0.686,4.633-0.986c1.114-0.211,2.252-0.398,3.393-0.582c0.601-0.1,1.197-0.199,1.803-0.289
				c1.553-0.229,3.125-0.439,4.727-0.613c0.001,0,0.001,0,0.003,0c0.003,0,0.01,0,0.013,0c0.165-0.02,0.329-0.041,0.495-0.059
				c0.086-0.01,0.174-0.02,0.26-0.027c1.417-0.145,2.846-0.268,4.29-0.371c0.047-0.004,0.095-0.008,0.144-0.012l1.341-0.088
				c1.042-0.064,2.092-0.111,3.144-0.152l1.264-0.049c1.477-0.043,2.964-0.072,4.479-0.072h254.402c1.642,0,3.259,0.029,4.854,0.08
				c4.752,0.154,9.405,0.535,13.888,1.143c0.139,0.018,0.276,0.012,0.415,0.027c92.86,12.545,100.476,116.521,100.476,149.797
				C762.378,591.457,753.75,707.068,642.742,707.068z"/>
		</g>
	</g>
</g>
<g>
	<g>
		<g>
			<path fill="#15AFB6" d="M755.544,471.418c-102.253,0-182.354,49.975-182.354,113.775s80.101,113.773,182.354,113.773
				s182.353-49.975,182.353-113.773C937.896,521.393,857.797,471.418,755.544,471.418z M861.739,636.077
				c-28.065,16.297-65.78,25.271-106.198,25.271c-40.419,0-78.133-8.977-106.199-25.271c-10.433-6.061-25.981-17.043-33.753-32.074
				h151.025c10.389,0,18.811-8.422,18.811-18.811c0-10.391-8.422-18.813-18.811-18.813H615.589
				c7.771-15.031,23.32-26.014,33.753-32.07c28.066-16.297,65.78-25.271,106.199-25.271c40.418,0,78.133,8.975,106.198,25.271
				c14.392,8.357,38.534,26.08,38.534,50.883S876.131,627.719,861.739,636.077z"/>
		</g>
	</g>
</g>
<g>
	<g>
		<path fill="#15AFB6" d="M567.089,238.867c-0.245-1.203-0.602-2.389-1.071-3.517c-0.471-1.128-1.054-2.22-1.73-3.255
			c-0.695-1.016-1.468-1.975-2.333-2.859c-0.885-0.866-1.844-1.636-2.859-2.333c-1.034-0.677-2.125-1.261-3.255-1.731
			c-1.13-0.47-2.313-0.828-3.517-1.072c-2.428-0.489-4.93-0.489-7.355,0c-1.204,0.244-2.389,0.602-3.517,1.072
			c-1.128,0.47-2.222,1.053-3.255,1.731c-1.017,0.695-1.994,1.467-2.859,2.333c-0.865,0.884-1.654,1.844-2.333,2.859
			c-0.677,1.035-1.261,2.125-1.731,3.255c-0.47,1.128-0.827,2.314-1.07,3.517c-0.244,1.224-0.358,2.445-0.358,3.688
			c0,1.222,0.113,2.445,0.358,3.669c0.245,1.203,0.602,2.389,1.07,3.517c0.472,1.128,1.055,2.22,1.731,3.254
			c0.677,1.016,1.468,1.994,2.333,2.859c0.865,0.866,1.844,1.655,2.859,2.333c1.033,0.677,2.125,1.261,3.255,1.731
			c1.128,0.47,2.313,0.828,3.517,1.072c1.224,0.244,2.445,0.376,3.669,0.376c1.242,0,2.464-0.131,3.688-0.376
			c1.205-0.244,2.39-0.602,3.518-1.072c1.128-0.471,2.22-1.053,3.255-1.731c1.017-0.677,1.976-1.467,2.859-2.333
			c0.865-0.865,1.636-1.844,2.332-2.859c0.677-1.034,1.262-2.125,1.73-3.254c0.472-1.128,0.828-2.314,1.072-3.517
			c0.243-1.224,0.357-2.445,0.357-3.669C567.447,241.313,567.334,240.091,567.089,238.867z"/>
	</g>
</g>
<g>
	<g>
		<path fill="#15AFB6" d="M841.495,581.518c-0.245-1.205-0.603-2.391-1.071-3.518c-0.471-1.129-1.054-2.24-1.73-3.256
			c-0.695-1.033-1.486-1.992-2.353-2.859c-0.866-0.863-1.825-1.652-2.858-2.332c-1.017-0.676-2.106-1.262-3.236-1.73
			c-1.146-0.471-2.333-0.828-3.518-1.072c-2.427-0.488-4.929-0.488-7.354,0c-1.204,0.244-2.389,0.602-3.517,1.072
			c-1.147,0.471-2.239,1.053-3.256,1.73c-1.033,0.678-1.994,1.469-2.858,2.332c-0.865,0.867-1.654,1.826-2.333,2.859
			c-0.678,1.016-1.262,2.125-1.731,3.256c-0.47,1.127-0.828,2.314-1.071,3.518s-0.377,2.445-0.377,3.668
			c0,1.242,0.133,2.465,0.377,3.688c0.245,1.205,0.603,2.371,1.071,3.518c0.472,1.129,1.054,2.223,1.731,3.236
			c0.677,1.035,1.468,1.994,2.333,2.859c0.864,0.865,1.825,1.654,2.858,2.352c1.017,0.676,2.106,1.262,3.256,1.73
			c1.128,0.471,2.313,0.828,3.517,1.072c1.203,0.244,2.445,0.357,3.669,0.357c1.242,0,2.464-0.113,3.688-0.357
			c1.186-0.244,2.37-0.602,3.519-1.072c1.128-0.471,2.22-1.053,3.235-1.73c1.034-0.693,1.993-1.484,2.858-2.352
			c0.866-0.865,1.655-1.824,2.353-2.859c0.677-1.016,1.262-2.105,1.73-3.236c0.471-1.145,0.828-2.313,1.072-3.518
			c0.243-1.223,0.357-2.445,0.357-3.688C841.854,583.963,841.74,582.721,841.495,581.518z"/>
	</g>
</g>
<g>
	<g>
		<path fill="#15AFB6" d="M529.469,332.919c-0.244-1.203-0.602-2.37-1.072-3.518c-0.47-1.128-1.053-2.221-1.729-3.235
			c-0.695-1.035-1.468-1.994-2.333-2.859c-0.885-0.885-1.844-1.654-2.859-2.352c-1.033-0.677-2.125-1.262-3.255-1.731
			c-1.13-0.471-2.313-0.827-3.518-1.071c-2.426-0.489-4.929-0.489-7.354,0c-1.203,0.244-2.389,0.602-3.517,1.071
			c-1.129,0.471-2.239,1.054-3.255,1.731c-1.034,0.695-1.994,1.467-2.859,2.352c-0.866,0.865-1.655,1.824-2.333,2.859
			c-0.677,1.016-1.261,2.105-1.73,3.235c-0.471,1.146-0.828,2.313-1.071,3.518c-0.244,1.224-0.358,2.445-0.358,3.688
			c0,1.222,0.112,2.444,0.358,3.669c0.243,1.202,0.602,2.389,1.071,3.517c0.471,1.128,1.054,2.221,1.73,3.255
			c0.677,1.017,1.467,1.994,2.333,2.859c0.865,0.865,1.825,1.653,2.859,2.333c1.016,0.677,2.125,1.261,3.255,1.73
			c1.128,0.471,2.313,0.828,3.517,1.071c1.225,0.244,2.445,0.377,3.669,0.377c1.242,0,2.464-0.132,3.688-0.377
			c1.203-0.243,2.389-0.602,3.518-1.071c1.128-0.471,2.221-1.054,3.254-1.73c1.017-0.677,1.977-1.468,2.859-2.333
			c0.866-0.865,1.637-1.844,2.333-2.859c0.677-1.034,1.261-2.125,1.731-3.255c0.471-1.128,0.828-2.313,1.071-3.517
			c0.243-1.225,0.376-2.445,0.376-3.669C529.846,335.364,529.714,334.143,529.469,332.919z"/>
	</g>
</g>
</svg>
