<?xml version="1.0" encoding="utf-8"?>
<!-- Generator: Adobe Illustrator 16.0.0, SVG Export Plug-In . SVG Version: 6.00 Build 0)  -->
<!DOCTYPE svg PUBLIC "-//W3C//DTD SVG 1.1//EN" "http://www.w3.org/Graphics/SVG/1.1/DTD/svg11.dtd">
<svg version="1.1" id="Layer_1" xmlns="http://www.w3.org/2000/svg" xmlns:xlink="http://www.w3.org/1999/xlink" x="0px" y="0px"
	 width="800px" height="500.257px" viewBox="240 149.872 800 500.257" enable-background="new 240 149.872 800 500.257"
	 xml:space="preserve">
<g>
	<g>
		<g>
			<path fill="#F8324A" d="M1038.258,348.412c-2.174-4.602-6.175-8.083-11.031-9.599l-132.896-41.44
				c-0.141-0.044-0.284-0.07-0.424-0.111c-0.12-0.034-0.232-0.08-0.354-0.112l-122.701-32.342
				c-8.264-2.395-16.781-3.03-25.318-1.876l-227.709,30.663c-10.82,1.459-20.683,5.731-28.909,12.001
				c-28.332-76.814-100.944-147.033-104.749-150.676c-7.047-6.742-18.158-6.727-25.189,0.034
				c-4.733,4.553-115.906,112.597-115.906,207.135c0,74.922,57.653,135.875,128.516,135.875c55.561,0,102.987-37.475,120.886-89.767
				c9.656,6.315,21.181,10.001,33.558,10.001h40.153l-97.635,97.635c-4.567,4.567-10.639,7.175-17.094,7.347l-151.579,3.992
				C266.298,528.052,240,555.052,240,588.638c0,16.471,6.427,31.94,18.092,43.563c11.612,11.567,27.012,17.929,43.394,17.929
				c0.08,0,0.159,0,0.241,0l242.061-0.929c16.336-0.06,31.695-6.458,43.246-18.008l158.093-158.092l49.176,9.13l-17.909,40.157
				c-2.509,5.629-2.001,12.145,1.354,17.312c3.354,5.169,9.097,8.289,15.258,8.289h158.213c7.399,0,14.062-4.484,16.85-11.338
				l70.594-173.621C1040.576,358.313,1040.432,353.012,1038.258,348.412z M371.586,461.584c-50.805,0-92.138-44.635-92.138-99.497
				c0-62.322,64.45-138.197,92.245-168.014c33.956,36.133,92.029,110.014,92.029,168.014
				C463.727,416.947,422.392,461.584,371.586,461.584z M742.353,435.587c-5.893-1.094-11.945,0.786-16.182,5.021L561.309,605.471
				c-4.717,4.719-10.987,7.328-17.659,7.354l-242.062,0.929c-0.033,0-0.066,0-0.099,0c-6.69,0-12.979-2.601-17.722-7.322
				c-4.766-4.745-7.391-11.064-7.391-17.791c0-13.714,10.739-24.741,24.45-25.103l151.58-3.992
				c15.808-0.414,30.676-6.803,41.862-17.987l128.686-128.686c5.201-5.202,6.758-13.025,3.942-19.824
				c-2.816-6.795-9.447-11.228-16.805-11.228h-84.065c-13.847,0-25.112-11.265-25.112-25.112v-2.177
				c0-12.516,9.354-23.217,21.759-24.889l227.709-30.665c3.525-0.473,7.041-0.206,10.448,0.798c0.169,0.049,0.339,0.099,0.51,0.143
				l102.243,26.951l-14.964,33.558l-58.497-16.698c-9.662-2.751-19.727,2.841-22.48,12.498c-2.759,9.663,2.837,19.729,12.498,22.484
				l53.514,15.273l-24.115,54.074L742.353,435.587z M938.977,511.608H821.031l47.957-107.536l101.887,29.082L938.977,511.608z
				 M984.659,399.256l-100.704-28.744l14.982-33.597l98.572,30.735L984.659,399.256z"/>
		</g>
	</g>
</g>
<g>
	<g>
		<path fill="#F8324A" d="M748.08,342.084c-0.235-1.164-0.6-2.292-1.055-3.4c-0.454-1.094-1-2.148-1.673-3.13
			c-0.655-1-1.419-1.928-2.255-2.764c-0.836-0.838-1.765-1.6-2.765-2.273c-0.982-0.654-2.037-1.219-3.128-1.674
			c-1.109-0.454-2.256-0.8-3.42-1.037c-2.347-0.474-4.747-0.474-7.094,0c-1.164,0.236-2.31,0.583-3.421,1.037
			c-1.09,0.455-2.146,1.02-3.128,1.674c-1,0.674-1.928,1.438-2.764,2.273s-1.601,1.764-2.255,2.764
			c-0.654,0.983-1.219,2.038-1.674,3.13c-0.454,1.108-0.818,2.236-1.037,3.401c-0.236,1.18-0.364,2.383-0.364,3.566
			c0,1.18,0.127,2.383,0.364,3.545c0.219,1.166,0.581,2.313,1.037,3.401c0.455,1.094,1.02,2.164,1.674,3.146
			c0.654,1,1.419,1.929,2.255,2.765s1.764,1.6,2.764,2.255c0.983,0.654,2.038,1.219,3.128,1.673c1.109,0.455,2.255,0.8,3.421,1.038
			c1.164,0.235,2.364,0.344,3.547,0.344c4.802,0,9.477-1.929,12.859-5.312c0.836-0.837,1.6-1.764,2.255-2.764
			c0.673-0.983,1.219-2.055,1.673-3.147c0.455-1.092,0.819-2.235,1.055-3.401c0.219-1.164,0.346-2.364,0.346-3.545
			C748.426,344.467,748.298,343.264,748.08,342.084z"/>
	</g>
</g>
</svg>
